<?xml version="1.0" encoding="utf-8"?>
<!-- Generator: Adobe Illustrator 22.0.1, SVG Export Plug-In . SVG Version: 6.00 Build 0)  -->
<svg version="1.1" id="Layer_1" xmlns="http://www.w3.org/2000/svg" xmlns:xlink="http://www.w3.org/1999/xlink" x="0px" y="0px"
	 viewBox="0 0 425.2 182.2" style="enable-background:new 0 0 425.2 182.2;" xml:space="preserve">
<g>
	<path d="M30.3,134.8c-0.5,3.1-3.4,5.3-6.1,4.9c-13.8-2-12-38.1-10.6-48c1.1-7.3,5.1-28.2,15.1-26.8c5.8,0.8,6.7,4.9,6.6,9.9
		c5.8-3.6,11.6-7,18.7-6c10.4,1.5,13.7,11.7,12.4,21c-2.4,16.6-21.9,33.9-38.8,32.8C26.8,129.5,30.8,130.9,30.3,134.8z M47.8,94.7
		c8-11.6,0.4-16.8-8.6-4.5c-4.5,6.1-8,14.1-9.5,18.8C35.7,106.8,43.4,101.2,47.8,94.7z"/>
	<path d="M82.2,68c3.8,0.3,5.6,3.1,5.4,6.6c-1,14.4-5.7,28.7-6.6,41.3c-0.7,10.2,3,10.3,2.8,13.7c-0.2,3.5-2.8,6.3-5.8,6.1
		c-9.2-0.6-10.9-10.4-11-17.7c-0.2-10.3,2-29.5,7.3-41.5C76.4,71.4,79,67.8,82.2,68z"/>
	<path d="M101.2,134.4c-7.1,0.2-13.8-3.1-14.1-11.4c-0.4-13.1,11-17.7,21.9-18c0.4-2.1,0.7-4.4,0.7-6.7c-0.1-2.3-0.1-4.4-2.4-4.4
		c-3.1,0.1-6.6,5.1-10.8,5.2c-3,0.1-5.8-2.4-5.9-5.5c-0.2-6.3,11.6-10.8,16.7-10.9c11.9-0.4,15.3,7.5,15.6,18.1
		c0.3,9.8-1.4,19.7-1.1,29.4c0.1,3.7-1.2,7-5.2,7.1c-3,0.1-5-2.6-6.3-5.3C107.5,133.3,104.4,134.3,101.2,134.4z M102.8,123.8
		c2.2-0.1,6.4-0.8,6.3-3.6c-0.1-3-3.9-2.7-5.6-2.1C99,119.6,98.5,124,102.8,123.8z"/>
	<path d="M149.4,126c-12.5,3.1-19.8-11.6-22.2-21.3c-1.4-5.6-5.6-18.8,2.6-20.9c4.5-1.1,9.1-0.3,11,10.5
		c4.8,27.2,13.1,21.3,12.9,3.1c-0.1-3-1.8-10.8-1.2-15.2c0.5-2.9,2.5-5.1,5.2-5.8c2.9-0.7,5.4,1,6.8,3.3
		c1.9,3.1,10.6,31.9,11.9,36.9c3.7,15,1.9,30.8-15.7,35.1c-3.7,0.9-8,0.3-9-3.9c-1.3-5,3.8-8.2,7.2-11.3c6.1-5.7,3.3-14.5,2-21.9
		C157.9,119.4,155.5,124.5,149.4,126z"/>
	<path d="M202.4,108.1c-1.7,1.4-3.6,3-5.7,3.7c-10.7,3.9-21.2-7.4-24.5-16.5c-3.9-10.5-0.3-25.7,11-29.9c2.7-1,5.4-1.2,8.3-0.8
		c0.9-1.6,2-2.7,3.7-3.3c6.9-2.5,9.5,7,11.2,11.7c3.8,10.2,16.1,44.5,12,54.1c-1.5,3.9-4.4,7.1-8.3,8.5c-4.2,1.5-10.5,1.6-12.3-3.5
		c-3-8,8.5-6.4,6.5-16.1L202.4,108.1z M193.6,78.8c-0.8-2.3-4-3.1-5.7-2.5c-4.4,1.6-3.2,10.4-1.7,14.4c2.8,7.6,10.5,13.6,10.3,2
		C196.4,88.4,195.2,83,193.6,78.8z"/>
	<path d="M234.2,54.3c3.6-0.9,7,0.3,8,4.2c1.7,7.3-14.2,10-11.4,21.5c1.4,6,4.6,11.8,6,17.9c0.9,3.9-0.2,8.3-4.6,9.3
		c-10.3,2.5-15.4-21.6-17.2-29.1c-1.2-5.2-5-16.7,2.9-18.6c2.1-0.5,3.8,0,5.7,0.8C227,57.9,230.2,55.2,234.2,54.3z"/>
	<path d="M258.2,100.9c-4.4,0.4-7.7-1.3-10.2-4.2c-8.5-9.3-6.7-27-2-36.8c5.2-10.5,18.7-12,24.9-2.1c2.4,3.8,3.3,8.9,3.7,13.2
		C275.5,80.8,269.9,99.8,258.2,100.9z M255.5,79.4c1.6,17.5,10.2,3.3,9.3-6.2C263,54.7,254.3,67.1,255.5,79.4z"/>
	<path d="M305.6,57.6c1.1-4.3,3.4-5.8,6.9-5.6c8.7,0.7,5.1,18.8,4.7,24.9c-0.3,5.6,1.5,13.7,1.3,16.4c-0.2,3.2-3.3,5.6-6.2,5.4
		c-6.5-0.5-7.9-7.8-9.1-12.9c-3.9,4-6.8,8.5-12.8,8c-11.1-0.8-13.8-14.5-13.1-23.6c0.4-5.4,3.1-21.1,10.2-20.5
		c3.2,0.2,5.4,3,5.2,6.4c-0.3,3.5-1,7.1-1.6,10.7c-2.8,18.1,3.5,22.6,11.1,2.1C303.3,65.5,304.6,61.6,305.6,57.6z"/>
	<path d="M333.8,93.7c-1,3.8-3.2,6.7-7.4,5.7c-8.2-2.1-2.9-24.3-1.4-30.1c1.3-5.1,3.4-17.2,10.6-15.4c3.6,0.9,3.7,3.5,4.5,6.4
		c4.4-1.7,8.7-2.4,13.2-1.2c14.3,3.6,7,39.3-1.9,44.7c-1.4,0.8-3.1,1-5,0.5c-3.7-0.9-5.3-5.4-3.5-11.8c0.9-3.1,1.7-5.9,2.4-8.5
		c5.3-19.8-6.7-12.1-9.4-1.2C334.8,86.3,334.7,90.1,333.8,93.7z"/>
	<path d="M370.3,114.2c-16.7-6-7.3-31.4,3.2-39.4c3.1-2.3,6.8-3.3,10.8-1.9c5.4,1.9,9,5.3,10.5,10.6c1.8-3.9,6.2-16.5,11.7-21.6
		c6.1-5.5,15.6,0.9,11.4,8.5c-6.8,11.4-19,32.6-21.8,47.2c-0.5,2.8-3,4.6-6,3.5c-2.8-1-4.8-7.2-5.5-9.7
		C379.8,113.5,376.2,116.2,370.3,114.2z M386.4,90.7c-0.3-7.1-4.8-3.4-7.4,0.2c-1.7,2.3-6,10.9-1.7,12.3
		C380.6,104.4,386.7,98.1,386.4,90.7z"/>
</g>
<path d="M5,134.5c0,0.3,0.3,0.5,0.5,0.6c0.2,0.2,0.4,0.4,0.6,0.6c0.4,0.4,0.8,0.7,1.3,1.1c0.9,0.7,1.7,1.3,2.6,2
	c1.8,1.3,3.6,2.4,5.5,3.6c3.7,2.3,7.5,4.3,11.4,6.1c7.7,3.8,15.8,6.6,23.9,9c16.3,4.7,33,6.8,49.8,7c16.8,0.1,33.5-1.8,50-5.2
	c16.5-3.4,32.7-8.4,48.6-14.4c4-1.5,7.9-3.1,11.9-4.7l5.9-2.5c1-0.4,1.9-0.8,2.8-1.3l2.9-1.4c8-3.8,16.2-7.2,24.5-10.3
	c16.6-6.1,33.7-10.5,51.1-12.9c17.4-2.4,35.1-2.8,52.4,0.3c4.3,0.8,8.6,1.8,12.9,3.1c4.2,1.3,8.4,2.9,12.3,4.9
	c8,3.8,15.4,9.3,20.8,16.5c-6.3-6.4-13.9-10.7-21.9-13.6c-4-1.5-8.1-2.5-12.2-3.4c-4.1-0.9-8.3-1.5-12.5-1.8
	c-16.8-1.4-33.8,0.2-50.4,3.5c-16.6,3.3-32.9,8.4-48.7,14.8c-7.9,3.2-15.6,6.8-23.2,10.7l-2.9,1.5l-3.1,1.5l-6,2.8
	c-4,1.9-8.1,3.6-12.2,5.2c-16.4,6.7-33.3,11.9-50.6,15.3c-17.3,3.3-35.1,4.8-52.7,3.6c-17.6-1.1-35.2-4.8-51.6-11.6
	c-8.2-3.3-16.1-7.5-23.6-12.4c-3.7-2.5-7.3-5.2-10.7-8.1c-1.7-1.4-3.3-3-4.9-4.6c-0.8-0.8-1.6-1.6-2.3-2.5c-0.4-0.4-0.7-0.9-1.1-1.3
	c-0.2-0.2-0.3-0.5-0.5-0.7C5.2,135,5,134.8,5,134.5z"/>
<path d="M72.7,35.8L150,82.6c0-0.2,0-0.4,0.1-0.6c0.6-4,3.4-7,7.1-7.9c3.6-0.9,7.2,0.8,9.5,4.3c0.4,0.6,1,2.1,1.7,4
	c0.2-1.8,0.6-3.5,1.1-5.2c2.1-6.4,6.1-11.2,11.4-13.6L89.7,7.9c-6.6-4-15.1-1.9-19.1,4.6l-2.5,4.1C64.1,23.2,66.2,31.8,72.7,35.8z"
	/>
<g>
	<path d="M221.7,123.2c3.2,1.7,6.4,3.3,9.6,4.9c4.8-2.1,9.8-4.1,14.9-6c4.8-1.7,9.6-3.3,14.3-4.8c-6.5-5-13.7-10.3-21-15.5
		c-0.5,3.9-2.9,6.9-6.8,7.8c-0.7,0.2-1.4,0.2-2.1,0.2c-1.6,0-3.2-0.5-4.7-1.4c-5.9-3.6-9.5-13.8-12.2-24.2c-0.3-0.2-0.6-0.4-0.9-0.6
		C219.2,102.2,222.1,115.4,221.7,123.2z"/>
	<path d="M275.4,129.6c-7.7,2.4-15.5,5.2-23.3,8.3c13.9,6.2,25.5,10.2,30.9,9.7l2.5-4.1C286.1,140.8,282.1,135.8,275.4,129.6z"/>
</g>
<ellipse transform="matrix(0.9574 -0.2886 0.2886 0.9574 -31.2189 93.2557)" cx="300.6" cy="152.5" rx="12.9" ry="11.5"/>
</svg>
