<?xml version="1.0" encoding="utf-8"?>
<!-- Generator: Adobe Illustrator 22.0.1, SVG Export Plug-In . SVG Version: 6.00 Build 0)  -->
<svg version="1.1" id="Layer_1" xmlns="http://www.w3.org/2000/svg" xmlns:xlink="http://www.w3.org/1999/xlink" x="0px" y="0px"
	 viewBox="0 0 425.2 425.2" style="enable-background:new 0 0 425.2 425.2;" xml:space="preserve">
<path d="M242.9,10.5c-0.6,0-0.9,0-1,0c0.3,0,0.6,0,0.8,0C242.7,10.5,242.8,10.5,242.9,10.5z"/>
<path d="M356.6,413.3c-4.1-3.4-8.3-6.5-12.8-9.4c-10.7-6.7-21.6-11.9-33.4-16.3c-11.5-4.3-24-6.6-30.8-17.5
	c-7.7-12.3-11.5-25.4-15.6-39.1c-2.7-8.9-5.8-17.7-9.4-26.2c-3.4-8.2-6.5-18.7-13-25.1c-9-8.7-22.4-8.9-33.5-4.7
	c2.6-29.1-30.2-45.4-53.5-29.3c-9.8-19.3-33.3-23-50.1-10.3c-13.8-14.2-35.3-13.6-49,0.6c-25-7.9-54.3,13.9-42.6,41.7
	c2.7,6.4,7.5,9.1,11.7,13.9c4.1,4.8,2.3,10,4,16.3c3.6,13.1,14.7,20.9,27.5,22.7c2.9,20.4,20.7,31.2,39.7,27.2
	c-3.3,31.9,33,47.4,57,29.9c13.9,31.3,57.3,14.5,83.5,6.9c13.1-3.8,29.7-9,42.8-3.4c24.8,10.6,45.5,24.6,72.8,28.7
	c2,0.3,4.5-0.7,5.3-2.6c0.2-0.3,0.3-0.7,0.5-1C357.9,415.2,357.5,414.1,356.6,413.3z M251,384.5c-10.5,1.9-20.5,5.5-30.8,8.2
	c-9.5,2.4-19.2,4.3-29,5.8c-15.9,2.3-27.6-1.7-32.5-18.1c-1-3.3-5.8-2.1-7.6-0.2C129.7,403,98.9,380,104.5,353c0.7-3.3-4.3-3-6-2.3
	c-17.7,6.9-33.4-5.7-34.7-23.2c-0.1-1.5-1.1-2.7-2.8-2.9c-17.6-1.3-28-16.1-24.5-33.1c0.3-1.3-0.9-2.2-1.8-2.6
	C5.5,274.9,21.5,229,53.9,243c1.9,0.8,4.5,0,5.8-1.6c11-13.8,29.4-12.7,39.9,0.9c1.8,2.4,5.4,1.3,7.2-0.5
	c14.8-14.9,35.3-6.8,41.4,10.9c0.9,2.6,5.1,2.6,6.9,0.9c22-21,49.8,1.6,43.6,27.6c-0.7,3.1,4.4,3.3,6,2.3c14.5-8.8,28.5-5,35.8,10.2
	c3.8,7.9,7.1,16.1,10.1,24.3c4.2,11.5,6.9,23.5,11.1,35c2.5,6.9,6.4,17.4,11.6,24.5c-19.7-9.7-39.4-19.5-59.1-29.2
	c-4.5-18.9-8.9-37.8-13.4-56.7c-0.4-1.6-8.6,0.5-8.2,2.2c3.9,16.5,7.3,33.1,11.5,49.5c-15.1-7.5-30.2-14.9-45.3-22.4
	c0-0.1,0-0.1,0-0.2c-1.7-17.6-3.5-35.2-5.2-52.8c-0.2-2.3-8.5-0.6-8.2,2.2c1.5,14.8,5.5,31.6,5.3,46.8c-13-6.4-26-12.9-39-19.3
	c-1.6-13.7-3.1-27.3-4.7-41c-0.2-2-8.5-0.3-8.2,2.2c1.3,11.3,3.8,23.1,4.5,34.6c-4.4-2.2-8.8-4.4-13.2-6.5
	c-9.5-4.7-19-9.4-28.5-14.1c-2.1-1-8.6,2.3-7.7,2.8c16.2,8,32.3,16,48.5,23.9c-0.7,0.3-1.4,0.6-2,0.9c-3.6,1.9-7.2,3.8-10.9,5.7
	c-5.9,3.1-11.8,6.2-17.7,9.2c-4.8,2.5,2.6,2.8,4.9,1.6c9.9-5.2,19.8-10.3,29.7-15.5c14.2,7,28.5,14.1,42.7,21.1
	c-0.4,0.1-0.7,0.3-0.9,0.4c-4.7,1.9-9.1,4.7-13.6,7c-7.6,3.9-15.1,7.7-22.7,11.6c-4.9,2.5,2.5,3.2,5,2c12.2-6.3,24.4-12.5,36.7-18.8
	c17.6,8.7,35.3,17.4,52.9,26.1c-0.3,0.1-0.7,0.3-1.1,0.6c-4.5,2.6-9.6,4.4-14.3,6.6c-8.2,3.8-16.5,7.6-24.7,11.4
	c-4.9,2.2,2.8,1.7,4.7,0.8c12.9-5.9,25.8-11.9,38.7-17.8c15,7.4,29.9,14.8,44.9,22.2c5.1,2.5,10.3,5.1,15.4,7.6
	C263.5,382.3,257,383.4,251,384.5z"/>
<g>
	<path d="M275.6,398.6c-10-4.2-24.3-0.1-35.9,3.3l-1.5,0.4c-2.4,0.7-5,1.5-7.7,2.3c-1.3,0.4-2.6,0.8-3.9,1.2c2.1,0,4.2,0,6.3,0
		c14.1,0,28.1,0,42.2,0c2.4,0,4.9,0.3,7.2,0c-6,0.7-1.5,0.2,0.6,0.3c3,0.2,6,0.2,9,0C286.7,403.6,281.2,401,275.6,398.6z"/>
	<path d="M145.6,68.4c0.8,0.3,1.7,0.7,2.5,1.1c0.4,0.2,0.7,0.4,1.1,0.6c0.8,0.5,1.6,1.1,2.4,1.5c0.3,0.2,0.5,0.3,0.6,0.3
		c0.1,0.1,0.1,0.3,0.3,0.6c0.3,0.5,1.2,2.2,1.1,1.8c0.2,0.6,0.4,1.1,0.6,1.7c0.2,0.5,0.2,1.1,0.3,1.6c0,0,0,0.1,0,0.1c0,0,0,0,0,0
		c0,1.7-0.2,3.3-0.4,4.9c-1.4,8.9-5.6,17.3-10,26c-8,15.7-18.1,30.2-26.5,45.7C106.4,175,99,197.2,95.3,219.9
		c3.5,1.4,6.8,3.2,9.8,5.5c4.7-2.6,9.7-4.2,14.8-5c1.2-7.7,2.8-15.3,4.9-22.9c14.1-12.3,30.8-21.6,48.4-25.4
		c33.1-7.2,65.7,4.4,95.3,18.6c30.5,14.6,59.4,33.5,91.4,44.6c0.6,0.2,1.2,0.4,1.7,0.6c3,29.7-0.4,60.1-9.8,89.4
		c-3.2,10-7.2,19.8-11.8,29.3c-4.6,9.5-9.8,18.7-18.3,25.1c-1.2,0.9-2.4,1.7-3.6,2.4c6.6,2.6,12.8,5.5,18.8,8.7
		c11.7-8.8,20.8-20.8,27.5-34.9c24.8-52,31.8-113.5,13.9-168.7c-5.6-17.4-13.7-33.9-23.3-49.4c-8.2-13.1-16.4-26.4-22.7-40.6
		c-1.9-4.2-3.6-8.5-4.9-12.9c-0.5-1.7-0.9-3.4-1.2-5.2c-0.1-0.8-0.2-1.5-0.4-2.3c0-0.4-0.1-0.6-0.1-0.8c0,0,0-0.1,0-0.4
		c0-1.2,0.2-2.3,0.3-3.5c0-0.3,0-0.4,0-0.6c0.1-0.1,0.2-0.2,0.3-0.5c0.1-0.3,0.3-0.6,0.5-0.9c0.1-0.1,0.1-0.1,0.2-0.2
		c0.1-0.1,0.2-0.2,0.4-0.3c0.8-0.3,1.6-0.8,2.4-1.2c2.1-0.9,4.3-1.7,6.4-2.6c16-6.4,41-25.9,24.6-44.1
		C346.2,5.2,317.9,8.5,298.1,8.7c-12,0.1-24.1,0.5-36.1,1c-4.5,0.2-9.1,0.4-13.6,0.6c-1.7,0.1-3.4,0.1-5,0.3c-0.2,0-0.3,0-0.5,0
		c0.3,0,0.7,0,1.2,0.1c-0.4,0-0.9,0-1.3-0.1c-0.5,0-1,0-0.8,0c-0.2,0-0.5,0-0.7,0c-22.2-1.1-44.3-2-66.5-1.8
		c-10,0.1-20.3,0.1-30.2,2.1c-12,2.4-26.1,10.3-29.5,22.9C109.9,52.4,131.7,62.7,145.6,68.4z M359.3,219.4
		c-31.6-11.4-60.1-30-90.3-44.4c-30.3-14.4-64.4-26.1-98.3-20c-12.1,2.2-23.5,6.4-34.1,12.1c3.7-7.4,7.7-14.6,11.9-21.7
		c7.8-4.1,16.1-7.3,24.9-9.1c32.7-6.8,65.2,5.7,94.2,19.8c29,14,56.6,31.8,87,42.8C356.5,205.7,358.1,212.5,359.3,219.4z
		 M139.7,33.9c0.4-3.6,3.4-5.2,6.3-6.2c-0.2,0.1,5.1-0.7,0.1-0.2c1.8-0.2,3.5-0.5,5.3-0.6c21.1-1.9,41.1-0.6,62.4,0.2
		c8.5,0.3,17.2,1.3,25.7,1c8.4-0.3,16.9-0.8,25.3-1.1c21.1-0.8,40.8-2.2,61.2,0.2c1.1,0.1,5.8,1.4,2.3,0.3c1.5,0.5,3.1,0.9,4.5,1.6
		c4.1,2,8.8,5.8,7.6,10.9c-0.5,2.1-2,3.8-3.5,5.3c-1.1,1.1-3.8,2.3-4.7,3.7c-0.2,0.1-0.5,0.3-0.7,0.4c-1,0.5-2,1-3,1.4
		c-9.4,4.1-20.2,7.3-25.5,17.1c-6.9,12.9,0.9,29.5,6.7,41.3c6.6,13.6,14.3,26.7,22.3,39.5c6,9.6,11,19.6,15.3,29.9
		c-26.5-11.6-51.3-27-77.5-39.3c-30.6-14.3-64.9-25.6-99-19c-3.1,0.6-6.1,1.3-9,2.1c3.3-5.9,6.5-11.9,9.4-18.1
		c5.4-11.6,13.6-29.3,5.1-41.5c-5.3-7.6-15.3-10.2-23.4-13.6c-0.5-0.3-1-0.5-1.4-0.7c-0.8-0.5-1.6-0.9-2.4-1.5
		C145.1,44.3,139.1,39.3,139.7,33.9z"/>
</g>
</svg>
