<?xml version="1.0" encoding="utf-8"?>
<!-- Generator: Adobe Illustrator 22.0.0, SVG Export Plug-In . SVG Version: 6.00 Build 0)  -->
<svg version="1.1" id="Layer_1" xmlns="http://www.w3.org/2000/svg" xmlns:xlink="http://www.w3.org/1999/xlink" x="0px" y="0px"
	 viewBox="0 0 152 61" style="enable-background:new 0 0 152 61;" xml:space="preserve">
<g>
	<g>
		<g>
			<path d="M12.9,53c-2-0.9-3.5-2.3-4.8-4l5-3.6c0.6,1,1.4,1.8,2.4,2.3c1.1,0.5,2.3,0.8,3.7,0.8c2.4,0,4.3-0.7,5.6-2.2
				c1.3-1.5,2-3.6,2-6.3V10.1h6.2v30c0,3-0.5,5.6-1.6,7.8s-2.6,3.8-4.7,4.9c-2.1,1.1-4.5,1.7-7.4,1.7C17,54.4,14.9,53.9,12.9,53z"/>
		</g>
	</g>
	<g>
		<path d="M38.6,4.7c1.2,0,2.2,1,2.2,2.2v47c0,1.2-1,2.2-2.2,2.2H7.2c-1.2,0-2.2-1-2.2-2.2v-47c0-1.2,1-2.2,2.2-2.2H38.6 M38.6,0.7
			H7.2c-3.4,0-6.2,2.8-6.2,6.2v47c0,3.4,2.8,6.2,6.2,6.2h31.4c3.4,0,6.2-2.8,6.2-6.2v-47C44.8,3.4,42,0.7,38.6,0.7L38.6,0.7z"/>
	</g>
</g>
<g>
	<g>
		<path d="M85.6,4.7c1.2,0,2.2,1,2.2,2.2v47c0,1.2-1,2.2-2.2,2.2H54.2c-1.2,0-2.2-1-2.2-2.2v-47c0-1.2,1-2.2,2.2-2.2H85.6 M85.6,0.7
			H54.2c-3.4,0-6.2,2.8-6.2,6.2v47c0,3.4,2.8,6.2,6.2,6.2h31.4c3.4,0,6.2-2.8,6.2-6.2v-47C91.8,3.4,89,0.7,85.6,0.7L85.6,0.7z"/>
	</g>
	<g>
		<g>
			<path d="M61.8,52.4c-2.3-1.3-4.1-3.2-5.4-5.7s-1.9-5.3-1.9-8.5V25.8c0-3.2,0.6-6.1,1.9-8.5s3.1-4.3,5.4-5.7c2.3-1.3,5-2,8.1-2
				c3.1,0,5.8,0.7,8.1,2c2.3,1.3,4.1,3.2,5.4,5.7c1.3,2.4,1.9,5.3,1.9,8.5v12.4c0,3.2-0.6,6.1-1.9,8.5c-1.3,2.4-3.1,4.3-5.4,5.7
				c-2.3,1.3-5,2-8.1,2C66.8,54.4,64.1,53.8,61.8,52.4z M74.6,47.1c1.4-0.8,2.4-2,3.2-3.5s1.1-3.2,1.1-5.2V25.6c0-2-0.4-3.7-1.1-5.2
				c-0.8-1.5-1.8-2.7-3.2-3.5c-1.4-0.8-3-1.2-4.8-1.2s-3.4,0.4-4.8,1.2s-2.4,2-3.2,3.5c-0.8,1.5-1.1,3.2-1.1,5.2v12.9
				c0,2,0.4,3.7,1.1,5.2s1.8,2.7,3.2,3.5c1.4,0.8,3,1.2,4.8,1.2S73.3,47.9,74.6,47.1z"/>
		</g>
	</g>
</g>
<g>
	<path d="M147.8,53.7V57h-3.3v-3.3H147.8 M148.9,50.7h-5.4c-1.1,0-2,0.9-2,2v5.4c0,1.1,0.9,2,2,2h5.4c1.1,0,2-0.9,2-2v-5.4
		C150.8,51.6,150,50.7,148.9,50.7L148.9,50.7z"/>
</g>
<g>
	<g>
		<path d="M132.6,4.7c1.2,0,2.2,1,2.2,2.2v47c0,1.2-1,2.2-2.2,2.2h-31.4c-1.2,0-2.2-1-2.2-2.2v-47c0-1.2,1-2.2,2.2-2.2H132.6
			 M132.6,0.7h-31.4c-3.4,0-6.2,2.8-6.2,6.2v47c0,3.4,2.8,6.2,6.2,6.2h31.4c3.4,0,6.2-2.8,6.2-6.2v-47C138.8,3.4,136,0.7,132.6,0.7
			L132.6,0.7z"/>
	</g>
	<g>
		<g>
			<path d="M101.4,10.1h31v5.9h-31V10.1z M113.8,13.7h6.2V54h-6.2V13.7z"/>
		</g>
	</g>
</g>
</svg>
