<?xml version="1.0" encoding="utf-8"?>
<!-- Generator: Adobe Illustrator 22.0.1, SVG Export Plug-In . SVG Version: 6.00 Build 0)  -->
<svg version="1.1" id="Layer_1" xmlns="http://www.w3.org/2000/svg" xmlns:xlink="http://www.w3.org/1999/xlink" x="0px" y="0px"
	 viewBox="0 0 425.2 425.2" style="enable-background:new 0 0 425.2 425.2;" xml:space="preserve">
<path d="M331.5,53L216.3,168.3c-2.6,2.6-6.7,2.6-9.3,0L91.7,53c-2.6-2.6-6.7-2.6-9.3,0L49.3,86.1c-2.6,2.6-2.6,6.7,0,9.3
	l115.2,115.2c2.6,2.6,2.6,6.7,0,9.3L49.3,335.2c-2.6,2.6-2.6,6.7,0,9.3l33.1,33.1c2.6,2.6,6.7,2.6,9.3,0L207,262.3
	c2.6-2.6,6.7-2.6,9.3,0l115.2,115.2c2.6,2.6,6.7,2.6,9.3,0l33.1-33.1c2.6-2.6,2.6-6.7,0-9.3L258.7,220c-2.6-2.6-2.6-6.7,0-9.3
	L373.9,95.4c2.6-2.6,2.6-6.7,0-9.3L340.8,53C338.2,50.5,334.1,50.5,331.5,53z"/>
</svg>
