<?xml version="1.0" encoding="utf-8"?>
<!-- Generator: Adobe Illustrator 22.0.0, SVG Export Plug-In . SVG Version: 6.00 Build 0)  -->
<svg version="1.1" id="Layer_1" xmlns="http://www.w3.org/2000/svg" xmlns:xlink="http://www.w3.org/1999/xlink" x="0px" y="0px"
	 viewBox="0 0 216 168.3" style="enable-background:new 0 0 216 168.3;" xml:space="preserve">
<path d="M214.2,159.8l-32.6-58.6c8.9-4,16-9.8,21.4-17.6c5.4-7.8,8.1-17.3,8.1-28.6c0-17.3-5.9-30.7-17.6-40.1
	c-11.7-9.4-27.9-14.2-48.6-14.2H92.5c-0.5,0-0.9,0.1-1.4,0.1H63.6c-5,0-6.6,4.3-7.3,6L1,161.5c0,3.3,2.7,6,6,6h31.1c3.3,0,6-2.7,6-6
	l8.4-23.4h34v23.3c0,1.6,0.6,3,1.7,4.2c1.1,1.2,2.5,1.8,4.3,1.8h30.7c1.7,0,3.2-0.6,4.4-1.8c1.2-1.2,1.8-2.6,1.8-4.2v-52.9h12
	l27.1,52.4c0.6,1.3,1.7,2.7,3.1,4.2c1.4,1.5,3.6,2.3,6.7,2.3h31.7c1.3,0,2.4-0.5,3.5-1.5c1-1,1.5-2.2,1.5-3.5
	C214.9,161.6,214.7,160.7,214.2,159.8z M64.9,103.8l21.7-60.5v60.5H64.9z M161.2,69.3c-3.7,3.7-9.3,5.5-16.8,5.5h-15.1V33.8h15.1
	c7.8,0,13.5,1.9,17,5.7c3.6,3.8,5.4,8.8,5.4,15C166.8,60.7,165,65.6,161.2,69.3z"/>
</svg>
